<?xml version="1.0" standalone="no"?>
<!DOCTYPE svg PUBLIC "-//W3C//DTD SVG 20010904//EN"
 "http://www.w3.org/TR/2001/REC-SVG-20010904/DTD/svg10.dtd">
<svg version="1.0" xmlns="http://www.w3.org/2000/svg"
 width="4299.000000pt" height="1604.000000pt" viewBox="0 0 4299.000000 1604.000000"
 preserveAspectRatio="xMidYMid meet">

<g transform="translate(0.000000,1604.000000) scale(0.100000,-0.100000)"
fill="#000000" stroke="none">
<path d="M7315 11870 c-809 -43 -1469 -406 -1898 -1044 -87 -129 -224 -406
-277 -561 -79 -230 -141 -516 -170 -790 -18 -163 -24 -603 -11 -775 58 -767
314 -1365 772 -1805 365 -350 775 -549 1299 -630 145 -22 515 -31 677 -16 930
87 1547 549 1879 1407 38 98 114 337 109 342 -5 5 -1022 329 -1049 334 -16 2
-23 -14 -51 -112 -134 -464 -334 -749 -638 -906 -179 -93 -328 -127 -542 -126
-270 0 -484 61 -688 195 -442 291 -637 810 -637 1697 0 350 26 594 90 838 108
413 327 701 665 875 352 181 843 181 1175 0 143 -78 284 -203 377 -334 60 -85
136 -244 166 -346 13 -46 26 -85 30 -89 5 -5 1074 243 1086 253 7 5 -40 155
-86 273 -167 426 -394 720 -733 947 -418 280 -937 405 -1545 373z"/>
<path d="M19145 11870 c-809 -43 -1469 -406 -1898 -1044 -87 -129 -224 -406
-277 -561 -79 -230 -141 -516 -170 -790 -18 -163 -24 -603 -11 -775 58 -767
314 -1365 772 -1805 365 -350 775 -549 1299 -630 145 -22 515 -31 677 -16 930
87 1547 549 1879 1407 38 98 114 337 109 342 -5 5 -1022 329 -1049 334 -16 2
-23 -14 -51 -112 -134 -464 -334 -749 -638 -906 -179 -93 -328 -127 -542 -126
-270 0 -484 61 -688 195 -442 291 -637 810 -637 1697 0 350 26 594 90 838 108
413 327 701 665 875 352 181 843 181 1175 0 143 -78 284 -203 377 -334 60 -85
136 -244 166 -346 13 -46 26 -85 30 -89 5 -5 1074 243 1086 253 7 5 -40 155
-86 273 -167 426 -394 720 -733 947 -418 280 -937 405 -1545 373z"/>
<path d="M24645 11870 c-809 -43 -1469 -406 -1898 -1044 -87 -129 -224 -406
-277 -561 -79 -230 -141 -516 -170 -790 -18 -163 -24 -603 -11 -775 58 -767
314 -1365 772 -1805 365 -350 775 -549 1299 -630 145 -22 515 -31 677 -16 930
87 1547 549 1879 1407 38 98 114 337 109 342 -5 5 -1022 329 -1049 334 -16 2
-23 -14 -51 -112 -109 -378 -252 -623 -468 -795 -179 -144 -384 -220 -646
-240 -79 -6 -83 -5 -76 12 31 75 -12 153 -85 153 -11 0 -34 -13 -52 -28 -27
-25 -31 -36 -31 -77 l0 -47 -51 6 c-138 18 -323 90 -456 178 -445 292 -640
810 -640 1698 0 350 26 594 90 838 108 413 327 701 665 875 352 181 843 181
1175 0 143 -78 284 -203 377 -334 60 -85 136 -244 166 -346 13 -46 26 -85 30
-89 5 -5 1074 243 1086 253 7 5 -40 155 -86 273 -167 426 -394 720 -733 947
-418 280 -937 405 -1545 373z"/>
<path d="M10620 9055 l0 -2725 510 0 510 0 1 2128 c0 1170 4 2118 8 2107 4
-11 246 -968 537 -2127 l529 -2108 532 0 532 0 10 38 c6 20 247 975 535 2121
289 1146 528 2086 531 2089 3 3 5 -952 5 -2121 l0 -2127 510 0 510 0 0 2725 0
2725 -827 -2 -827 -3 -485 -1844 c-334 -1271 -488 -1838 -493 -1825 -6 14
-752 2814 -969 3637 l-10 37 -824 0 -825 0 0 -2725z"/>
<path d="M27960 9056 l0 -2726 1123 0 c1282 0 1441 7 1742 70 202 42 483 152
659 257 527 316 908 986 1010 1774 63 484 38 1120 -60 1558 -55 247 -111 406
-219 627 -124 253 -264 445 -458 630 -249 238 -562 401 -902 469 -286 58 -303
58 -1652 62 l-1243 4 0 -2725z m1950 1794 c314 -11 439 -22 560 -51 298 -73
503 -215 655 -454 84 -132 163 -336 199 -515 85 -424 83 -1166 -5 -1595 -50
-241 -158 -500 -264 -627 -139 -169 -382 -291 -650 -328 -149 -20 -508 -31
-925 -28 l-415 3 -3 1790 c-1 985 0 1796 3 1803 6 15 433 16 845 2z"/>
<path d="M30212 10634 c-63 -32 -101 -109 -88 -179 10 -50 68 -112 118 -126
77 -20 154 15 189 87 37 77 17 155 -54 208 -36 27 -122 32 -165 10z"/>
<path d="M29180 10013 c-70 -27 -116 -106 -105 -181 9 -58 62 -115 123 -131
144 -39 259 134 168 253 -41 54 -127 81 -186 59z"/>
<path d="M31100 9693 c-38 -15 -74 -50 -92 -91 -71 -160 134 -304 259 -182 82
81 61 215 -40 264 -34 16 -97 20 -127 9z"/>
<path d="M29343 8799 c-148 -73 -96 -299 69 -299 57 0 96 17 131 60 62 73 36
193 -53 238 -55 28 -93 28 -147 1z"/>
<path d="M30244 7791 c-79 -36 -112 -133 -72 -211 31 -61 77 -90 143 -90 124
0 199 121 143 230 -42 81 -129 110 -214 71z"/>
<path d="M33452 9058 l3 -2723 1315 1 c1385 0 1714 8 1950 44 307 48 533 143
745 313 257 207 463 569 531 932 26 138 27 454 1 570 -42 192 -113 361 -213
501 -72 102 -226 251 -333 323 -108 71 -240 137 -358 178 -46 15 -83 30 -83
34 0 3 21 15 48 28 148 71 327 223 436 368 175 233 258 488 257 788 0 269 -58
469 -198 688 -209 327 -523 540 -908 616 -278 55 -466 61 -1913 61 l-1282 0 2
-2722z m2528 1802 c205 -11 310 -33 414 -88 220 -115 328 -378 270 -660 -24
-118 -66 -195 -154 -282 -125 -125 -274 -182 -518 -200 -70 -5 -421 -10 -779
-10 l-653 0 0 625 0 625 623 0 c342 0 701 -5 797 -10z m150 -2179 c282 -33
429 -92 563 -227 72 -72 136 -185 164 -294 24 -91 24 -311 0 -400 -53 -194
-174 -336 -359 -419 -164 -74 -265 -81 -1175 -88 l-763 -6 0 727 0 728 738 -5
c451 -3 774 -9 832 -16z"/>
<path d="M19088 9314 c139 -279 257 -503 261 -498 5 5 121 233 260 507 l251
497 -513 0 -512 0 253 -506z"/>
<path d="M18410 8580 l0 -200 935 0 935 0 0 200 0 200 -935 0 -935 0 0 -200z"/>
<path d="M23721 8380 c-18 -15 -31 -32 -28 -37 3 -4 103 -127 222 -273 129
-158 226 -286 240 -317 34 -76 98 -103 164 -69 39 21 61 58 61 106 0 56 -23
96 -68 119 -20 10 -151 127 -291 260 -139 133 -256 241 -260 241 -3 -1 -21
-14 -40 -30z"/>
<path d="M24611 7904 c-37 -26 -54 -77 -41 -124 12 -46 42 -70 85 -70 41 0 71
23 85 65 16 47 5 89 -32 120 -34 29 -64 32 -97 9z"/>
<path d="M24602 7595 c-36 -30 -47 -75 -28 -120 31 -73 124 -76 161 -5 19 37
19 54 0 95 -28 57 -85 70 -133 30z"/>
<path d="M28060 5430 l-415 -207 413 -207 c226 -113 414 -206 417 -206 3 0 5
61 5 135 l0 135 1670 0 1670 0 0 -135 c0 -84 4 -135 10 -135 6 0 196 93 422
206 l413 207 -415 208 c-228 114 -418 208 -422 208 -5 1 -8 -62 -8 -139 l0
-140 -1670 0 -1669 0 -3 139 -3 139 -415 -208z"/>
</g>
</svg>
