<?xml version="1.0" standalone="no"?>
<!DOCTYPE svg PUBLIC "-//W3C//DTD SVG 20010904//EN"
 "http://www.w3.org/TR/2001/REC-SVG-20010904/DTD/svg10.dtd">
<svg version="1.0" xmlns="http://www.w3.org/2000/svg"
 width="2809.000000pt" height="2805.000000pt" viewBox="0 0 2809.000000 2805.000000"
 preserveAspectRatio="xMidYMid meet">

<g transform="translate(0.000000,2805.000000) scale(0.100000,-0.100000)"
fill="#000000" stroke="none">
<path d="M4755 16534 c-292 -23 -575 -117 -790 -260 -476 -318 -725 -866 -725
-1599 0 -566 153 -1008 458 -1327 216 -225 446 -361 728 -432 140 -35 251 -47
427 -47 268 1 464 34 653 111 383 156 635 444 790 900 36 106 40 126 28 133
-9 5 -108 38 -222 74 -114 36 -263 83 -330 104 -68 21 -126 39 -128 39 -2 0
-13 -33 -24 -72 -87 -299 -208 -473 -405 -587 -214 -124 -538 -118 -770 13
-290 163 -425 445 -457 954 -25 385 22 709 134 937 165 333 540 505 926 425
147 -30 247 -84 358 -195 98 -97 151 -184 189 -313 10 -34 24 -62 31 -62 11 0
113 24 489 115 55 13 116 27 135 31 19 3 45 10 57 15 l23 8 -36 103 c-69 202
-163 369 -275 491 -202 221 -469 361 -795 416 -118 20 -364 33 -469 25z"/>
<path d="M12475 16534 c-293 -24 -574 -116 -792 -261 -385 -256 -613 -648
-700 -1203 -26 -166 -26 -628 0 -785 50 -300 135 -530 274 -740 242 -365 638
-610 1073 -664 120 -15 406 -13 530 4 317 43 582 168 785 370 172 172 308 413
398 707 l14 47 -31 11 c-17 6 -121 40 -231 75 -110 35 -251 79 -313 99 -63 20
-118 34 -123 30 -5 -3 -9 -12 -9 -21 0 -29 -68 -220 -104 -291 -50 -100 -92
-159 -162 -227 -134 -132 -318 -205 -514 -205 -406 1 -703 248 -810 674 -98
390 -73 963 54 1265 109 258 332 438 601 485 161 28 341 15 469 -35 196 -77
361 -256 426 -464 13 -41 29 -75 35 -75 6 0 47 9 91 19 76 19 177 43 402 96
59 14 128 31 155 37 33 8 47 17 47 29 0 27 -68 207 -115 304 -178 368 -533
618 -986 695 -118 20 -356 32 -464 24z"/>
<path d="M16030 16531 c-181 -20 -337 -56 -470 -108 -481 -189 -813 -585 -944
-1126 -53 -222 -61 -300 -61 -622 0 -267 3 -314 23 -425 93 -516 320 -884 702
-1135 192 -126 409 -206 640 -234 108 -14 373 -14 498 -1 482 52 864 314 1076
737 63 126 146 344 146 384 0 13 -15 18 -325 116 -354 112 -366 116 -369 111
-1 -1 -15 -48 -30 -103 -110 -387 -356 -616 -691 -641 l-82 -7 4 30 c7 44 -12
73 -46 73 -34 0 -61 -28 -61 -63 0 -36 -24 -35 -142 3 -118 37 -202 87 -294
173 -211 197 -299 468 -311 962 -14 579 112 930 403 1124 267 179 645 189 902
24 147 -94 265 -257 311 -430 7 -24 17 -43 23 -43 12 0 192 42 303 70 39 10
143 35 233 56 107 25 162 42 162 51 0 16 -50 158 -82 233 -210 495 -668 777
-1290 794 -84 3 -187 1 -228 -3z"/>
<path d="M6947 16473 c-4 -3 -7 -802 -7 -1774 l0 -1767 28 -6 c23 -4 322 -3
569 2 l73 2 2 1372 3 1373 97 -385 c53 -212 206 -817 339 -1345 133 -528 244
-972 247 -987 2 -16 7 -28 11 -29 3 0 155 -2 338 -4 242 -2 335 0 346 8 8 7
77 262 166 617 139 553 300 1190 467 1849 35 140 66 257 69 259 3 3 5 -606 5
-1354 0 -747 4 -1364 8 -1370 6 -10 267 -13 580 -6 l82 2 -2 1773 -3 1772
-525 2 c-289 2 -530 -1 -537 -5 -6 -4 -61 -196 -122 -427 -153 -577 -151 -571
-172 -650 -11 -38 -78 -293 -149 -565 -71 -272 -138 -526 -149 -565 -10 -38
-24 -94 -31 -123 -7 -28 -16 -55 -21 -58 -5 -3 -9 -3 -9 1 0 3 -36 141 -81
308 -44 166 -89 335 -100 375 -10 39 -28 107 -40 150 -11 42 -29 109 -39 147
-31 118 -70 266 -92 345 -11 41 -27 100 -34 130 -8 30 -67 253 -132 495 l-118
440 -530 3 c-292 1 -534 -1 -537 -5z"/>
<path d="M18258 16474 c-5 -4 -8 -803 -8 -1774 l0 -1767 48 -6 c82 -10 1551 1
1637 13 227 30 344 63 535 152 399 187 690 683 750 1277 13 131 13 471 0 621
-25 289 -80 497 -191 725 -71 145 -160 271 -271 384 -213 215 -457 325 -808
362 -121 13 -1681 25 -1692 13z m1455 -615 c233 -18 382 -77 506 -198 133
-130 205 -294 248 -563 28 -178 25 -643 -5 -834 -26 -165 -66 -296 -125 -408
-76 -146 -202 -242 -391 -294 -90 -25 -96 -26 -533 -30 l-443 -3 0 825 c0 539
3 827 10 831 6 3 10 2 10 -4 0 -6 12 -22 27 -36 77 -70 195 7 166 108 -10 35
-63 77 -97 77 -30 0 -87 -37 -93 -60 -16 -62 -23 25 -23 296 l0 304 302 0
c166 0 365 -5 441 -11z"/>
<path d="M19723 15725 c-80 -35 -73 -155 13 -191 29 -12 38 -12 73 2 39 15 71
60 71 99 0 29 -30 74 -60 90 -35 18 -55 18 -97 0z"/>
<path d="M20288 15104 c-65 -35 -73 -121 -17 -168 69 -58 169 -13 169 76 -1
46 -10 64 -50 91 -30 21 -66 21 -102 1z"/>
<path d="M19148 14525 c-15 -9 -31 -30 -38 -50 -33 -101 79 -177 159 -109 27
22 31 32 31 74 0 42 -4 52 -31 74 -35 29 -79 33 -121 11z"/>
<path d="M19716 13849 c-65 -77 -1 -183 98 -165 74 14 103 117 48 169 -22 21
-38 27 -74 27 -39 0 -50 -5 -72 -31z"/>
<path d="M21845 16469 c-3 -8 -4 -808 -3 -1779 l3 -1765 540 -1 c297 0 752 3
1010 7 401 7 487 11 585 28 301 52 507 180 657 406 242 364 240 836 -5 1141
-91 113 -275 238 -417 284 -22 7 -44 15 -48 17 -4 3 24 25 64 49 188 116 309
270 379 484 17 50 23 99 27 211 6 172 -11 262 -76 394 -123 249 -340 420 -616
483 -161 38 -301 43 -1212 49 -740 4 -884 3 -888 -8z m1805 -611 c192 -52 290
-180 290 -378 0 -186 -92 -312 -275 -377 l-80 -28 -512 -3 -513 -3 0 406 0
406 518 -4 c419 -3 527 -6 572 -19z m4 -1411 c273 -46 416 -204 416 -460 0
-221 -100 -360 -306 -428 -68 -23 -76 -23 -636 -27 l-568 -3 0 471 0 472 498
-5 c401 -3 516 -7 596 -20z"/>
<path d="M12308 15195 c-8 -8 315 -645 325 -642 9 3 327 624 327 638 0 9 -643
13 -652 4z"/>
<path d="M12030 14390 l0 -130 605 0 605 0 0 130 0 130 -605 0 -605 0 0 -130z"/>
<path d="M15491 14256 c-7 -9 -11 -20 -9 -25 1 -5 67 -88 146 -185 78 -96 142
-180 142 -186 0 -21 49 -60 75 -60 33 0 75 42 75 75 0 16 -11 36 -27 51 -16
14 -104 95 -196 182 -92 86 -174 158 -181 160 -7 2 -18 -4 -25 -12z"/>
<path d="M16062 13937 c-30 -32 -28 -71 4 -96 15 -12 31 -21 35 -21 20 0 49
42 49 70 0 31 -30 70 -53 70 -8 0 -23 -10 -35 -23z"/>
<path d="M16060 13740 c-25 -25 -26 -62 -2 -83 25 -23 69 -22 82 2 36 68 -28
133 -80 81z"/>
<path d="M18318 12339 c-142 -71 -258 -132 -258 -137 0 -8 504 -262 520 -262
6 0 10 35 10 85 l0 85 1090 0 1090 0 0 -80 c0 -55 4 -82 13 -85 11 -5 500 234
520 254 9 9 -513 272 -525 265 -5 -3 -8 -43 -8 -90 l0 -84 -1087 2 -1088 3 -3
88 c-1 48 -6 87 -10 86 -4 0 -123 -58 -264 -130z"/>
</g>
</svg>
