<?xml version="1.0" standalone="no"?>
<!DOCTYPE svg PUBLIC "-//W3C//DTD SVG 20010904//EN"
 "http://www.w3.org/TR/2001/REC-SVG-20010904/DTD/svg10.dtd">
<svg version="1.0" xmlns="http://www.w3.org/2000/svg"
 width="400.000000pt" height="400.000000pt" viewBox="0 0 400.000000 400.000000"
 preserveAspectRatio="xMidYMid meet">

<g transform="translate(0.000000,400.000000) scale(0.100000,-0.100000)"
fill="#000000" stroke="none">
<path d="M1285 2916 c-98 -42 -124 -173 -52 -253 28 -30 40 -35 93 -40 68 -6
108 9 143 53 47 60 45 134 -6 194 -48 58 -113 74 -178 46z"/>
<path d="M972 2620 c-61 -37 -94 -119 -73 -183 7 -19 39 -65 71 -102 104 -118
99 -163 -43 -353 -57 -78 -38 -171 46 -226 96 -62 226 -9 244 99 10 62 -5 101
-63 167 -57 64 -93 127 -94 163 0 41 57 140 108 188 88 81 182 107 258 71 50
-24 130 -99 160 -149 54 -93 51 -150 -11 -227 -74 -91 -95 -130 -95 -176 0
-92 55 -152 145 -160 72 -6 126 22 154 81 39 80 25 132 -58 223 -46 50 -71
106 -71 158 0 43 25 90 79 150 29 32 56 69 61 82 28 72 -8 156 -82 192 -61 31
-112 23 -171 -24 -160 -129 -222 -136 -331 -34 -34 33 -75 64 -90 70 -43 16
-108 12 -144 -10z"/>
<path d="M695 2331 c-33 -14 -71 -58 -85 -100 -11 -33 -11 -48 0 -86 34 -122
197 -154 270 -53 36 50 45 88 30 135 -14 44 -43 79 -82 99 -29 15 -101 18
-133 5z"/>
<path d="M1272 2323 c-49 -24 -76 -69 -78 -128 -2 -60 13 -91 73 -152 99 -101
97 -191 -7 -303 -56 -61 -73 -103 -66 -164 8 -76 75 -136 151 -136 97 0 179
103 154 193 -5 18 -30 57 -55 87 -26 30 -53 65 -61 77 -24 36 -33 94 -22 136
11 40 65 127 79 127 19 0 63 92 63 130 0 112 -126 185 -231 133z"/>
<path d="M1850 2321 c-50 -27 -73 -62 -78 -123 -3 -44 0 -59 20 -87 52 -76
125 -99 200 -62 59 28 88 74 88 137 0 120 -123 193 -230 135z"/>
<path d="M1907 1882 l-27 -28 0 -196 0 -195 32 -27 c29 -23 40 -26 112 -26 73
0 82 2 108 27 22 21 28 36 28 70 0 41 -1 43 -29 43 -26 0 -30 -4 -33 -32 l-3
-33 -72 -3 -73 -3 0 181 0 180 75 0 75 0 0 -35 c0 -32 2 -35 30 -35 29 0 30 2
30 43 0 34 -6 49 -28 70 -26 25 -34 27 -113 27 -80 0 -87 -2 -112 -28z"/>
<path d="M2240 1876 c0 -25 5 -35 20 -39 20 -5 21 -12 20 -177 -2 -161 -3
-173 -21 -177 -14 -4 -19 -14 -19 -39 l0 -34 70 0 70 0 0 35 c0 28 -4 35 -20
35 -19 0 -20 7 -20 116 0 63 3 113 8 110 4 -2 32 -65 62 -140 30 -75 58 -136
61 -136 3 0 29 57 58 128 28 70 56 134 61 142 7 10 10 -24 10 -102 0 -111 -1
-118 -20 -118 -16 0 -20 -7 -20 -35 l0 -35 70 0 70 0 0 35 c0 24 -5 35 -15 35
-13 0 -15 27 -15 180 0 153 2 180 15 180 11 0 15 11 15 36 l0 35 -52 -3 -53
-3 -59 -147 c-33 -81 -63 -145 -67 -143 -4 3 -33 70 -65 150 l-58 145 -53 0
-53 0 0 -34z"/>
<path d="M2802 1881 l-32 -30 0 -188 0 -189 33 -32 c31 -31 37 -32 113 -32 77
0 81 1 112 33 24 25 32 42 32 70 0 36 -1 37 -35 37 -33 0 -35 -2 -35 -35 l0
-36 -72 3 -73 3 -3 178 -2 177 75 0 75 0 0 -35 c0 -33 2 -35 35 -35 35 0 35 1
35 43 0 34 -6 49 -28 70 -26 25 -34 27 -113 27 -80 0 -86 -2 -117 -29z"/>
<path d="M3158 1881 l-28 -27 0 -190 0 -190 33 -32 c31 -31 37 -32 113 -32 77
0 81 1 112 33 24 25 32 42 32 70 0 36 -1 37 -35 37 -33 0 -35 -2 -35 -35 l0
-35 -75 0 -75 0 0 180 0 180 75 0 75 0 0 -35 c0 -33 2 -35 35 -35 35 0 35 1
35 43 0 34 -6 49 -28 70 -26 25 -33 27 -118 26 -82 -1 -91 -3 -116 -28z"/>
</g>
</svg>
